
<svg
	xmlns="http://www.w3.org/2000/svg"
	version="1.1"
	xmlns:xlink="http://www.w3.org/1999/xlink"
	xmlns:svgjs="http://svgjs.dev/svgjs"
	viewBox="0 0 689 91"
	opacity="1"
	width="689"
	height="91"
>
	<rect x="1" y="1" rx="2" ry="2" width="10" height="10" stroke="#12171D" stroke-width="1" fill="#12171D"></rect>
	<rect x="1" y="14" rx="2" ry="2" width="10" height="10" stroke="#12171D" stroke-width="1" fill="#12171D"></rect>
	<rect x="1" y="27" rx="2" ry="2" width="10" height="10" stroke="#12171D" stroke-width="1" fill="#12171D"></rect>
	<rect x="1" y="40" rx="2" ry="2" width="10" height="10" stroke="#12171D" stroke-width="1" fill="#12171D"></rect>
	<rect x="1" y="53" rx="2" ry="2" width="10" height="10" stroke="#12171D" stroke-width="1" fill="#12171D"></rect>
	<rect x="1" y="66" rx="2" ry="2" width="10" height="10" stroke="#12171D" stroke-width="1" fill="#12171D"></rect>
	<rect x="1" y="79" rx="2" ry="2" width="10" height="10" stroke="#12171D" stroke-width="1" fill="#12171D"></rect>
	<rect x="14" y="1" rx="2" ry="2" width="10" height="10" stroke="#12171D" stroke-width="1" fill="#12171D"></rect>
	<rect x="14" y="14" rx="2" ry="2" width="10" height="10" stroke="#12171D" stroke-width="1" fill="#12171D"></rect>
	<rect x="14" y="27" rx="2" ry="2" width="10" height="10" stroke="#12171D" stroke-width="1" fill="#12171D"></rect>
	<rect x="14" y="40" rx="2" ry="2" width="10" height="10" stroke="#12171D" stroke-width="1" fill="#12171D"></rect>
	<rect x="14" y="53" rx="2" ry="2" width="10" height="10" stroke="#12171D" stroke-width="1" fill="#12171D"></rect>
	<rect x="14" y="66" rx="2" ry="2" width="10" height="10" stroke="#12171D" stroke-width="1" fill="#12171D"></rect>
	<rect x="14" y="79" rx="2" ry="2" width="10" height="10" stroke="#12171D" stroke-width="1" fill="#12171D"></rect>
	<rect x="27" y="1" rx="2" ry="2" width="10" height="10" stroke="#12171D" stroke-width="1" fill="#12171D"></rect>
	<rect x="27" y="14" rx="2" ry="2" width="10" height="10" stroke="#12171D" stroke-width="1" fill="#12171D"></rect>
	<rect x="27" y="27" rx="2" ry="2" width="10" height="10" stroke="#12171D" stroke-width="1" fill="#12171D"></rect>
	<rect x="27" y="40" rx="2" ry="2" width="10" height="10" stroke="#12171D" stroke-width="1" fill="#12171D"></rect>
	<rect x="27" y="53" rx="2" ry="2" width="10" height="10" stroke="#12171D" stroke-width="1" fill="#12171D"></rect>
	<rect x="27" y="66" rx="2" ry="2" width="10" height="10" stroke="#12171D" stroke-width="1" fill="#12171D"></rect>
	<rect x="27" y="79" rx="2" ry="2" width="10" height="10" stroke="#12171D" stroke-width="1" fill="#12171D"></rect>
	<rect x="40" y="1" rx="2" ry="2" width="10" height="10" stroke="#12171D" stroke-width="1" fill="#12171D"></rect>
	<rect x="40" y="14" rx="2" ry="2" width="10" height="10" stroke="#12171D" stroke-width="1" fill="#12171D"></rect>
	<rect x="40" y="27" rx="2" ry="2" width="10" height="10" stroke="#12171D" stroke-width="1" fill="#12171D"></rect>
	<rect x="40" y="40" rx="2" ry="2" width="10" height="10" stroke="#12171D" stroke-width="1" fill="#12171D"></rect>
	<rect x="40" y="53" rx="2" ry="2" width="10" height="10" stroke="#12171D" stroke-width="1" fill="#12171D"></rect>
	<rect x="40" y="66" rx="2" ry="2" width="10" height="10" stroke="#12171D" stroke-width="1" fill="#12171D"></rect>
	<rect x="40" y="79" rx="2" ry="2" width="10" height="10" stroke="#12171D" stroke-width="1" fill="#12171D"></rect>
	<rect x="53" y="1" rx="2" ry="2" width="10" height="10" stroke="#12171D" stroke-width="1" fill="#12171D"></rect>
	<rect x="53" y="14" rx="2" ry="2" width="10" height="10" stroke="#12171D" stroke-width="1" fill="#12171D"></rect>
	<rect x="53" y="27" rx="2" ry="2" width="10" height="10" stroke="#12171D" stroke-width="1" fill="#12171D"></rect>
	<rect x="53" y="40" rx="2" ry="2" width="10" height="10" stroke="#12171D" stroke-width="1" fill="#12171D"></rect>
	<rect x="53" y="53" rx="2" ry="2" width="10" height="10" stroke="#12171D" stroke-width="1" fill="#12171D"></rect>
	<rect x="53" y="66" rx="2" ry="2" width="10" height="10" stroke="#12171D" stroke-width="1" fill="#12171D"></rect>
	<rect x="53" y="79" rx="2" ry="2" width="10" height="10" stroke="#12171D" stroke-width="1" fill="#12171D"></rect>
	<rect x="66" y="1" rx="2" ry="2" width="10" height="10" stroke="#12171D" stroke-width="1" fill="#12171D"></rect>
	<rect x="66" y="14" rx="2" ry="2" width="10" height="10" stroke="#12171D" stroke-width="1" fill="#12171D"></rect>
	<rect x="66" y="27" rx="2" ry="2" width="10" height="10" stroke="#12171D" stroke-width="1" fill="#12171D"></rect>
	<rect x="66" y="40" rx="2" ry="2" width="10" height="10" stroke="#12171D" stroke-width="1" fill="#12171D"></rect>
	<rect x="66" y="53" rx="2" ry="2" width="10" height="10" stroke="#12171D" stroke-width="1" fill="#12171D"></rect>
	<rect x="66" y="66" rx="2" ry="2" width="10" height="10" stroke="#12171D" stroke-width="1" fill="#12171D"></rect>
	<rect x="66" y="79" rx="2" ry="2" width="10" height="10" stroke="#12171D" stroke-width="1" fill="#12171D"></rect>
	<rect x="79" y="1" rx="2" ry="2" width="10" height="10" stroke="#12171D" stroke-width="1" fill="#12171D"></rect>
	<rect x="79" y="14" rx="2" ry="2" width="10" height="10" stroke="#12171D" stroke-width="1" fill="#12171D"></rect>
	<rect x="79" y="27" rx="2" ry="2" width="10" height="10" stroke="#12171D" stroke-width="1" fill="#12171D"></rect>
	<rect x="79" y="40" rx="2" ry="2" width="10" height="10" stroke="#12171D" stroke-width="1" fill="#12171D"></rect>
	<rect x="79" y="53" rx="2" ry="2" width="10" height="10" stroke="#12171D" stroke-width="1" fill="#12171D"></rect>
	<rect x="79" y="66" rx="2" ry="2" width="10" height="10" stroke="#12171D" stroke-width="1" fill="#12171D"></rect>
	<rect x="79" y="79" rx="2" ry="2" width="10" height="10" stroke="#12171D" stroke-width="1" fill="#12171D"></rect>
	<rect x="92" y="1" rx="2" ry="2" width="10" height="10" stroke="#12171D" stroke-width="1" fill="#12171D"></rect>
	<rect x="92" y="14" rx="2" ry="2" width="10" height="10" stroke="#12171D" stroke-width="1" fill="#12171D"></rect>
	<rect x="92" y="27" rx="2" ry="2" width="10" height="10" stroke="#12171D" stroke-width="1" fill="#12171D"></rect>
	<rect x="92" y="40" rx="2" ry="2" width="10" height="10" stroke="#12171D" stroke-width="1" fill="#12171D"></rect>
	<rect x="92" y="53" rx="2" ry="2" width="10" height="10" stroke="#12171D" stroke-width="1" fill="#12171D"></rect>
	<rect x="92" y="66" rx="2" ry="2" width="10" height="10" stroke="#12171D" stroke-width="1" fill="#12171D"></rect>
	<rect x="92" y="79" rx="2" ry="2" width="10" height="10" stroke="#12171D" stroke-width="1" fill="#12171D"></rect>
	<rect x="105" y="1" rx="2" ry="2" width="10" height="10" stroke="#12171D" stroke-width="1" fill="#12171D"></rect>
	<rect x="105" y="14" rx="2" ry="2" width="10" height="10" stroke="#12171D" stroke-width="1" fill="#12171D"></rect>
	<rect x="105" y="27" rx="2" ry="2" width="10" height="10" stroke="#12171D" stroke-width="1" fill="#12171D"></rect>
	<rect x="105" y="40" rx="2" ry="2" width="10" height="10" stroke="#12171D" stroke-width="1" fill="#12171D"></rect>
	<rect x="105" y="53" rx="2" ry="2" width="10" height="10" stroke="#12171D" stroke-width="1" fill="#12171D"></rect>
	<rect x="105" y="66" rx="2" ry="2" width="10" height="10" stroke="#12171D" stroke-width="1" fill="#12171D"></rect>
	<rect x="105" y="79" rx="2" ry="2" width="10" height="10" stroke="#12171D" stroke-width="1" fill="#12171D"></rect>
	<rect x="118" y="1" rx="2" ry="2" width="10" height="10" stroke="#12171D" stroke-width="1" fill="#12171D"></rect>
	<rect x="118" y="14" rx="2" ry="2" width="10" height="10" stroke="#12171D" stroke-width="1" fill="#12171D"></rect>
	<rect x="118" y="27" rx="2" ry="2" width="10" height="10" stroke="#12171D" stroke-width="1" fill="#12171D"></rect>
	<rect x="118" y="40" rx="2" ry="2" width="10" height="10" stroke="#12171D" stroke-width="1" fill="#12171D"></rect>
	<rect x="118" y="53" rx="2" ry="2" width="10" height="10" stroke="#12171D" stroke-width="1" fill="#12171D"></rect>
	<rect x="118" y="66" rx="2" ry="2" width="10" height="10" stroke="#12171D" stroke-width="1" fill="#12171D"></rect>
	<rect x="118" y="79" rx="2" ry="2" width="10" height="10" stroke="#12171D" stroke-width="1" fill="#12171D"></rect>
	<rect x="131" y="1" rx="2" ry="2" width="10" height="10" stroke="#12171D" stroke-width="1" fill="#12171D"></rect>
	<rect x="131" y="14" rx="2" ry="2" width="10" height="10" stroke="#12171D" stroke-width="1" fill="#12171D"></rect>
	<rect x="131" y="27" rx="2" ry="2" width="10" height="10" stroke="#12171D" stroke-width="1" fill="#12171D"></rect>
	<rect x="131" y="40" rx="2" ry="2" width="10" height="10" stroke="#12171D" stroke-width="1" fill="#12171D"></rect>
	<rect x="131" y="53" rx="2" ry="2" width="10" height="10" stroke="#12171D" stroke-width="1" fill="#12171D"></rect>
	<rect x="131" y="66" rx="2" ry="2" width="10" height="10" stroke="#12171D" stroke-width="1" fill="#12171D"></rect>
	<rect x="131" y="79" rx="2" ry="2" width="10" height="10" stroke="#12171D" stroke-width="1" fill="#12171D"></rect>
	<rect x="144" y="1" rx="2" ry="2" width="10" height="10" stroke="#12171D" stroke-width="1" fill="#12171D"></rect>
	<rect x="144" y="14" rx="2" ry="2" width="10" height="10" stroke="#12171D" stroke-width="1" fill="#12171D"></rect>
	<rect x="144" y="27" rx="2" ry="2" width="10" height="10" stroke="#12171D" stroke-width="1" fill="#12171D"></rect>
	<rect x="144" y="40" rx="2" ry="2" width="10" height="10" stroke="#12171D" stroke-width="1" fill="#12171D"></rect>
	<rect x="144" y="53" rx="2" ry="2" width="10" height="10" stroke="#12171D" stroke-width="1" fill="#12171D"></rect>
	<rect x="144" y="66" rx="2" ry="2" width="10" height="10" stroke="#12171D" stroke-width="1" fill="#12171D"></rect>
	<rect x="144" y="79" rx="2" ry="2" width="10" height="10" stroke="#12171D" stroke-width="1" fill="#12171D"></rect>
	<rect x="157" y="1" rx="2" ry="2" width="10" height="10" stroke="#12171D" stroke-width="1" fill="#12171D"></rect>
	<rect x="157" y="14" rx="2" ry="2" width="10" height="10" stroke="#12171D" stroke-width="1" fill="#12171D"></rect>
	<rect x="157" y="27" rx="2" ry="2" width="10" height="10" stroke="#12171D" stroke-width="1" fill="#12171D"></rect>
	<rect x="157" y="40" rx="2" ry="2" width="10" height="10" stroke="#12171D" stroke-width="1" fill="#12171D"></rect>
	<rect x="157" y="53" rx="2" ry="2" width="10" height="10" stroke="#12171D" stroke-width="1" fill="#12171D"></rect>
	<rect x="157" y="66" rx="2" ry="2" width="10" height="10" stroke="#12171D" stroke-width="1" fill="#12171D"></rect>
	<rect x="157" y="79" rx="2" ry="2" width="10" height="10" stroke="#12171D" stroke-width="1" fill="#12171D"></rect>
	<rect x="170" y="1" rx="2" ry="2" width="10" height="10" stroke="#12171D" stroke-width="1" fill="#12171D"></rect>
	<rect x="170" y="14" rx="2" ry="2" width="10" height="10" stroke="#12171D" stroke-width="1" fill="#12171D"></rect>
	<rect x="170" y="27" rx="2" ry="2" width="10" height="10" stroke="#12171D" stroke-width="1" fill="#12171D"></rect>
	<rect x="170" y="40" rx="2" ry="2" width="10" height="10" stroke="#12171D" stroke-width="1" fill="#12171D"></rect>
	<rect x="170" y="53" rx="2" ry="2" width="10" height="10" stroke="#12171D" stroke-width="1" fill="#12171D"></rect>
	<rect x="170" y="66" rx="2" ry="2" width="10" height="10" stroke="#12171D" stroke-width="1" fill="#12171D"></rect>
	<rect x="170" y="79" rx="2" ry="2" width="10" height="10" stroke="#12171D" stroke-width="1" fill="#12171D"></rect>
	<rect x="183" y="1" rx="2" ry="2" width="10" height="10" stroke="#12171D" stroke-width="1" fill="#12171D"></rect>
	<rect x="183" y="14" rx="2" ry="2" width="10" height="10" stroke="#12171D" stroke-width="1" fill="#12171D"></rect>
	<rect x="183" y="27" rx="2" ry="2" width="10" height="10" stroke="#12171D" stroke-width="1" fill="#12171D"></rect>
	<rect x="183" y="40" rx="2" ry="2" width="10" height="10" stroke="#12171D" stroke-width="1" fill="#12171D"></rect>
	<rect x="183" y="53" rx="2" ry="2" width="10" height="10" stroke="#12171D" stroke-width="1" fill="#12171D"></rect>
	<rect x="183" y="66" rx="2" ry="2" width="10" height="10" stroke="#12171D" stroke-width="1" fill="#12171D"></rect>
	<rect x="183" y="79" rx="2" ry="2" width="10" height="10" stroke="#12171D" stroke-width="1" fill="#12171D"></rect>
	<rect x="196" y="1" rx="2" ry="2" width="10" height="10" stroke="#12171D" stroke-width="1" fill="#12171D"></rect>
	<rect x="196" y="14" rx="2" ry="2" width="10" height="10" stroke="#12171D" stroke-width="1" fill="#12171D"></rect>
	<rect x="196" y="27" rx="2" ry="2" width="10" height="10" stroke="#12171D" stroke-width="1" fill="#12171D"></rect>
	<rect x="196" y="40" rx="2" ry="2" width="10" height="10" stroke="#12171D" stroke-width="1" fill="#12171D"></rect>
	<rect x="196" y="53" rx="2" ry="2" width="10" height="10" stroke="#12171D" stroke-width="1" fill="#12171D"></rect>
	<rect x="196" y="66" rx="2" ry="2" width="10" height="10" stroke="#12171D" stroke-width="1" fill="#12171D"></rect>
	<rect x="196" y="79" rx="2" ry="2" width="10" height="10" stroke="#12171D" stroke-width="1" fill="#12171D"></rect>
	<rect x="209" y="1" rx="2" ry="2" width="10" height="10" stroke="#12171D" stroke-width="1" fill="#12171D"></rect>
	<rect x="209" y="14" rx="2" ry="2" width="10" height="10" stroke="#12171D" stroke-width="1" fill="#12171D"></rect>
	<rect x="209" y="27" rx="2" ry="2" width="10" height="10" stroke="#12171D" stroke-width="1" fill="#12171D"></rect>
	<rect x="209" y="40" rx="2" ry="2" width="10" height="10" stroke="#12171D" stroke-width="1" fill="#12171D"></rect>
	<rect x="209" y="53" rx="2" ry="2" width="10" height="10" stroke="#12171D" stroke-width="1" fill="#12171D"></rect>
	<rect x="209" y="66" rx="2" ry="2" width="10" height="10" stroke="#12171D" stroke-width="1" fill="#12171D"></rect>
	<rect x="209" y="79" rx="2" ry="2" width="10" height="10" stroke="#12171D" stroke-width="1" fill="#12171D"></rect>
	<rect x="222" y="1" rx="2" ry="2" width="10" height="10" stroke="#12171D" stroke-width="1" fill="#12171D"></rect>
	<rect x="222" y="14" rx="2" ry="2" width="10" height="10" stroke="#12171D" stroke-width="1" fill="#12171D"></rect>
	<rect x="222" y="27" rx="2" ry="2" width="10" height="10" stroke="#12171D" stroke-width="1" fill="#12171D"></rect>
	<rect x="222" y="40" rx="2" ry="2" width="10" height="10" stroke="#12171D" stroke-width="1" fill="#12171D"></rect>
	<rect x="222" y="53" rx="2" ry="2" width="10" height="10" stroke="#12171D" stroke-width="1" fill="#12171D"></rect>
	<rect x="222" y="66" rx="2" ry="2" width="10" height="10" stroke="#12171D" stroke-width="1" fill="#12171D"></rect>
	<rect x="222" y="79" rx="2" ry="2" width="10" height="10" stroke="#12171D" stroke-width="1" fill="#12171D"></rect>
	<rect x="235" y="1" rx="2" ry="2" width="10" height="10" stroke="#12171D" stroke-width="1" fill="#12171D"></rect>
	<rect x="235" y="14" rx="2" ry="2" width="10" height="10" stroke="#12171D" stroke-width="1" fill="#12171D"></rect>
	<rect x="235" y="27" rx="2" ry="2" width="10" height="10" stroke="#12171D" stroke-width="1" fill="#12171D"></rect>
	<rect x="235" y="40" rx="2" ry="2" width="10" height="10" stroke="#12171D" stroke-width="1" fill="#12171D"></rect>
	<rect x="235" y="53" rx="2" ry="2" width="10" height="10" stroke="#12171D" stroke-width="1" fill="#12171D"></rect>
	<rect x="235" y="66" rx="2" ry="2" width="10" height="10" stroke="#12171D" stroke-width="1" fill="#12171D"></rect>
	<rect x="235" y="79" rx="2" ry="2" width="10" height="10" stroke="#12171D" stroke-width="1" fill="#12171D"></rect>
	<rect x="248" y="1" rx="2" ry="2" width="10" height="10" stroke="#12171D" stroke-width="1" fill="#12171D"></rect>
	<rect x="248" y="14" rx="2" ry="2" width="10" height="10" stroke="#12171D" stroke-width="1" fill="#12171D"></rect>
	<rect x="248" y="27" rx="2" ry="2" width="10" height="10" stroke="#12171D" stroke-width="1" fill="#12171D"></rect>
	<rect x="248" y="40" rx="2" ry="2" width="10" height="10" stroke="#12171D" stroke-width="1" fill="#12171D"></rect>
	<rect x="248" y="53" rx="2" ry="2" width="10" height="10" stroke="#12171D" stroke-width="1" fill="#12171D"></rect>
	<rect x="248" y="66" rx="2" ry="2" width="10" height="10" stroke="#12171D" stroke-width="1" fill="#12171D"></rect>
	<rect x="248" y="79" rx="2" ry="2" width="10" height="10" stroke="#12171D" stroke-width="1" fill="#12171D"></rect>
	<rect x="261" y="1" rx="2" ry="2" width="10" height="10" stroke="#12171D" stroke-width="1" fill="#12171D"></rect>
	<rect x="261" y="14" rx="2" ry="2" width="10" height="10" stroke="#12171D" stroke-width="1" fill="#12171D"></rect>
	<rect x="261" y="27" rx="2" ry="2" width="10" height="10" stroke="#12171D" stroke-width="1" fill="#12171D"></rect>
	<rect x="261" y="40" rx="2" ry="2" width="10" height="10" stroke="#12171D" stroke-width="1" fill="#12171D"></rect>
	<rect x="261" y="53" rx="2" ry="2" width="10" height="10" stroke="#12171D" stroke-width="1" fill="#12171D"></rect>
	<rect x="261" y="66" rx="2" ry="2" width="10" height="10" stroke="#12171D" stroke-width="1" fill="#12171D"></rect>
	<rect x="261" y="79" rx="2" ry="2" width="10" height="10" stroke="#12171D" stroke-width="1" fill="#12171D"></rect>
	<rect x="274" y="1" rx="2" ry="2" width="10" height="10" stroke="#12171D" stroke-width="1" fill="#12171D"></rect>
	<rect x="274" y="14" rx="2" ry="2" width="10" height="10" stroke="#12171D" stroke-width="1" fill="#12171D"></rect>
	<rect x="274" y="27" rx="2" ry="2" width="10" height="10" stroke="#12171D" stroke-width="1" fill="#12171D"></rect>
	<rect x="274" y="40" rx="2" ry="2" width="10" height="10" stroke="#12171D" stroke-width="1" fill="#12171D"></rect>
	<rect x="274" y="53" rx="2" ry="2" width="10" height="10" stroke="#12171D" stroke-width="1" fill="#12171D"></rect>
	<rect x="274" y="66" rx="2" ry="2" width="10" height="10" stroke="#12171D" stroke-width="1" fill="#12171D"></rect>
	<rect x="274" y="79" rx="2" ry="2" width="10" height="10" stroke="#12171D" stroke-width="1" fill="#12171D"></rect>
	<rect x="287" y="1" rx="2" ry="2" width="10" height="10" stroke="#12171D" stroke-width="1" fill="#12171D"></rect>
	<rect x="287" y="14" rx="2" ry="2" width="10" height="10" stroke="#12171D" stroke-width="1" fill="#12171D"></rect>
	<rect x="287" y="27" rx="2" ry="2" width="10" height="10" stroke="#12171D" stroke-width="1" fill="#12171D"></rect>
	<rect x="287" y="40" rx="2" ry="2" width="10" height="10" stroke="#12171D" stroke-width="1" fill="#12171D"></rect>
	<rect x="287" y="53" rx="2" ry="2" width="10" height="10" stroke="#12171D" stroke-width="1" fill="#12171D"></rect>
	<rect x="287" y="66" rx="2" ry="2" width="10" height="10" stroke="#12171D" stroke-width="1" fill="#12171D"></rect>
	<rect x="287" y="79" rx="2" ry="2" width="10" height="10" stroke="#12171D" stroke-width="1" fill="#12171D"></rect>
	<rect x="300" y="1" rx="2" ry="2" width="10" height="10" stroke="#124326" stroke-width="1" fill="#17472D"></rect>
	<rect x="300" y="14" rx="2" ry="2" width="10" height="10" stroke="#12171D" stroke-width="1" fill="#12171D"></rect>
	<rect x="300" y="27" rx="2" ry="2" width="10" height="10" stroke="#12171D" stroke-width="1" fill="#12171D"></rect>
	<rect x="300" y="40" rx="2" ry="2" width="10" height="10" stroke="#12171D" stroke-width="1" fill="#12171D"></rect>
	<rect x="300" y="53" rx="2" ry="2" width="10" height="10" stroke="#12171D" stroke-width="1" fill="#12171D"></rect>
	<rect x="300" y="66" rx="2" ry="2" width="10" height="10" stroke="#12171D" stroke-width="1" fill="#12171D"></rect>
	<rect x="300" y="79" rx="2" ry="2" width="10" height="10" stroke="#12171D" stroke-width="1" fill="#12171D"></rect>
	<rect x="313" y="1" rx="2" ry="2" width="10" height="10" stroke="#247B37" stroke-width="1" fill="#267D3E"></rect>
	<rect x="313" y="14" rx="2" ry="2" width="10" height="10" stroke="#12171D" stroke-width="1" fill="#12171D"></rect>
	<rect x="313" y="27" rx="2" ry="2" width="10" height="10" stroke="#12171D" stroke-width="1" fill="#12171D"></rect>
	<rect x="313" y="40" rx="2" ry="2" width="10" height="10" stroke="#12171D" stroke-width="1" fill="#12171D"></rect>
	<rect x="313" y="53" rx="2" ry="2" width="10" height="10" stroke="#12171D" stroke-width="1" fill="#12171D"></rect>
	<rect x="313" y="66" rx="2" ry="2" width="10" height="10" stroke="#12171D" stroke-width="1" fill="#12171D"></rect>
	<rect x="313" y="79" rx="2" ry="2" width="10" height="10" stroke="#12171D" stroke-width="1" fill="#12171D"></rect>
	<rect x="326" y="1" rx="2" ry="2" width="10" height="10" stroke="#247B37" stroke-width="1" fill="#267D3E"></rect>
	<rect x="326" y="14" rx="2" ry="2" width="10" height="10" stroke="#12171D" stroke-width="1" fill="#12171D"></rect>
	<rect x="326" y="27" rx="2" ry="2" width="10" height="10" stroke="#12171D" stroke-width="1" fill="#12171D"></rect>
	<rect x="326" y="40" rx="2" ry="2" width="10" height="10" stroke="#12171D" stroke-width="1" fill="#12171D"></rect>
	<rect x="326" y="53" rx="2" ry="2" width="10" height="10" stroke="#12171D" stroke-width="1" fill="#12171D"></rect>
	<rect x="326" y="66" rx="2" ry="2" width="10" height="10" stroke="#12171D" stroke-width="1" fill="#12171D"></rect>
	<rect x="326" y="79" rx="2" ry="2" width="10" height="10" stroke="#12171D" stroke-width="1" fill="#12171D"></rect>
	<rect x="339" y="1" rx="2" ry="2" width="10" height="10" stroke="#12171D" stroke-width="1" fill="#12171D"></rect>
	<rect x="339" y="14" rx="2" ry="2" width="10" height="10" stroke="#12171D" stroke-width="1" fill="#12171D"></rect>
	<rect x="339" y="27" rx="2" ry="2" width="10" height="10" stroke="#12171D" stroke-width="1" fill="#12171D"></rect>
	<rect x="339" y="40" rx="2" ry="2" width="10" height="10" stroke="#12171D" stroke-width="1" fill="#12171D"></rect>
	<rect x="339" y="53" rx="2" ry="2" width="10" height="10" stroke="#12171D" stroke-width="1" fill="#12171D"></rect>
	<rect x="339" y="66" rx="2" ry="2" width="10" height="10" stroke="#12171D" stroke-width="1" fill="#12171D"></rect>
	<rect x="339" y="79" rx="2" ry="2" width="10" height="10" stroke="#12171D" stroke-width="1" fill="#12171D"></rect>
	<rect x="352" y="1" rx="2" ry="2" width="10" height="10" stroke="#12171D" stroke-width="1" fill="#12171D"></rect>
	<rect x="352" y="14" rx="2" ry="2" width="10" height="10" stroke="#12171D" stroke-width="1" fill="#12171D"></rect>
	<rect x="352" y="27" rx="2" ry="2" width="10" height="10" stroke="#12171D" stroke-width="1" fill="#12171D"></rect>
	<rect x="352" y="40" rx="2" ry="2" width="10" height="10" stroke="#12171D" stroke-width="1" fill="#12171D"></rect>
	<rect x="352" y="53" rx="2" ry="2" width="10" height="10" stroke="#12171D" stroke-width="1" fill="#12171D"></rect>
	<rect x="352" y="66" rx="2" ry="2" width="10" height="10" stroke="#12171D" stroke-width="1" fill="#12171D"></rect>
	<rect x="352" y="79" rx="2" ry="2" width="10" height="10" stroke="#12171D" stroke-width="1" fill="#12171D"></rect>
	<rect x="365" y="1" rx="2" ry="2" width="10" height="10" stroke="#12171D" stroke-width="1" fill="#12171D"></rect>
	<rect x="365" y="14" rx="2" ry="2" width="10" height="10" stroke="#12171D" stroke-width="1" fill="#12171D"></rect>
	<rect x="365" y="27" rx="2" ry="2" width="10" height="10" stroke="#12171D" stroke-width="1" fill="#12171D"></rect>
	<rect x="365" y="40" rx="2" ry="2" width="10" height="10" stroke="#12171D" stroke-width="1" fill="#12171D"></rect>
	<rect x="365" y="53" rx="2" ry="2" width="10" height="10" stroke="#124326" stroke-width="1" fill="#17472D"></rect>
	<rect x="365" y="66" rx="2" ry="2" width="10" height="10" stroke="#12171D" stroke-width="1" fill="#12171D"></rect>
	<rect x="365" y="79" rx="2" ry="2" width="10" height="10" stroke="#12171D" stroke-width="1" fill="#12171D"></rect>
	<rect x="378" y="1" rx="2" ry="2" width="10" height="10" stroke="#12171D" stroke-width="1" fill="#12171D"></rect>
	<rect x="378" y="14" rx="2" ry="2" width="10" height="10" stroke="#12171D" stroke-width="1" fill="#12171D"></rect>
	<rect x="378" y="27" rx="2" ry="2" width="10" height="10" stroke="#12171D" stroke-width="1" fill="#12171D"></rect>
	<rect x="378" y="40" rx="2" ry="2" width="10" height="10" stroke="#12171D" stroke-width="1" fill="#12171D"></rect>
	<rect x="378" y="53" rx="2" ry="2" width="10" height="10" stroke="#12171D" stroke-width="1" fill="#12171D"></rect>
	<rect x="378" y="66" rx="2" ry="2" width="10" height="10" stroke="#12171D" stroke-width="1" fill="#12171D"></rect>
	<rect x="378" y="79" rx="2" ry="2" width="10" height="10" stroke="#12171D" stroke-width="1" fill="#12171D"></rect>
	<rect x="391" y="1" rx="2" ry="2" width="10" height="10" stroke="#247B37" stroke-width="1" fill="#267D3E"></rect>
	<rect x="391" y="14" rx="2" ry="2" width="10" height="10" stroke="#124326" stroke-width="1" fill="#17472D"></rect>
	<rect x="391" y="27" rx="2" ry="2" width="10" height="10" stroke="#12171D" stroke-width="1" fill="#12171D"></rect>
	<rect x="391" y="40" rx="2" ry="2" width="10" height="10" stroke="#12171D" stroke-width="1" fill="#12171D"></rect>
	<rect x="391" y="53" rx="2" ry="2" width="10" height="10" stroke="#247B37" stroke-width="1" fill="#267D3E"></rect>
	<rect x="391" y="66" rx="2" ry="2" width="10" height="10" stroke="#12171D" stroke-width="1" fill="#12171D"></rect>
	<rect x="391" y="79" rx="2" ry="2" width="10" height="10" stroke="#12171D" stroke-width="1" fill="#12171D"></rect>
	<rect x="404" y="1" rx="2" ry="2" width="10" height="10" stroke="#12171D" stroke-width="1" fill="#12171D"></rect>
	<rect x="404" y="14" rx="2" ry="2" width="10" height="10" stroke="#12171D" stroke-width="1" fill="#12171D"></rect>
	<rect x="404" y="27" rx="2" ry="2" width="10" height="10" stroke="#12171D" stroke-width="1" fill="#12171D"></rect>
	<rect x="404" y="40" rx="2" ry="2" width="10" height="10" stroke="#12171D" stroke-width="1" fill="#12171D"></rect>
	<rect x="404" y="53" rx="2" ry="2" width="10" height="10" stroke="#12171D" stroke-width="1" fill="#12171D"></rect>
	<rect x="404" y="66" rx="2" ry="2" width="10" height="10" stroke="#1C622E" stroke-width="1" fill="#1F6435"></rect>
	<rect x="404" y="79" rx="2" ry="2" width="10" height="10" stroke="#124326" stroke-width="1" fill="#17472D"></rect>
	<rect x="417" y="1" rx="2" ry="2" width="10" height="10" stroke="#124326" stroke-width="1" fill="#17472D"></rect>
	<rect x="417" y="14" rx="2" ry="2" width="10" height="10" stroke="#1C622E" stroke-width="1" fill="#1F6435"></rect>
	<rect x="417" y="27" rx="2" ry="2" width="10" height="10" stroke="#12171D" stroke-width="1" fill="#12171D"></rect>
	<rect x="417" y="40" rx="2" ry="2" width="10" height="10" stroke="#12171D" stroke-width="1" fill="#12171D"></rect>
	<rect x="417" y="53" rx="2" ry="2" width="10" height="10" stroke="#12171D" stroke-width="1" fill="#12171D"></rect>
	<rect x="417" y="66" rx="2" ry="2" width="10" height="10" stroke="#124326" stroke-width="1" fill="#17472D"></rect>
	<rect x="417" y="79" rx="2" ry="2" width="10" height="10" stroke="#12171D" stroke-width="1" fill="#12171D"></rect>
	<rect x="430" y="1" rx="2" ry="2" width="10" height="10" stroke="#247B37" stroke-width="1" fill="#267D3E"></rect>
	<rect x="430" y="14" rx="2" ry="2" width="10" height="10" stroke="#247B37" stroke-width="1" fill="#267D3E"></rect>
	<rect x="430" y="27" rx="2" ry="2" width="10" height="10" stroke="#12171D" stroke-width="1" fill="#12171D"></rect>
	<rect x="430" y="40" rx="2" ry="2" width="10" height="10" stroke="#247B37" stroke-width="1" fill="#267D3E"></rect>
	<rect x="430" y="53" rx="2" ry="2" width="10" height="10" stroke="#12171D" stroke-width="1" fill="#12171D"></rect>
	<rect x="430" y="66" rx="2" ry="2" width="10" height="10" stroke="#12171D" stroke-width="1" fill="#12171D"></rect>
	<rect x="430" y="79" rx="2" ry="2" width="10" height="10" stroke="#12171D" stroke-width="1" fill="#12171D"></rect>
	<rect x="443" y="1" rx="2" ry="2" width="10" height="10" stroke="#124326" stroke-width="1" fill="#17472D"></rect>
	<rect x="443" y="14" rx="2" ry="2" width="10" height="10" stroke="#247B37" stroke-width="1" fill="#267D3E"></rect>
	<rect x="443" y="27" rx="2" ry="2" width="10" height="10" stroke="#1C622E" stroke-width="1" fill="#1F6435"></rect>
	<rect x="443" y="40" rx="2" ry="2" width="10" height="10" stroke="#1C622E" stroke-width="1" fill="#1F6435"></rect>
	<rect x="443" y="53" rx="2" ry="2" width="10" height="10" stroke="#124326" stroke-width="1" fill="#17472D"></rect>
	<rect x="443" y="66" rx="2" ry="2" width="10" height="10" stroke="#247B37" stroke-width="1" fill="#267D3E"></rect>
	<rect x="443" y="79" rx="2" ry="2" width="10" height="10" stroke="#124326" stroke-width="1" fill="#17472D"></rect>
	<rect x="456" y="1" rx="2" ry="2" width="10" height="10" stroke="#1C622E" stroke-width="1" fill="#1F6435"></rect>
	<rect x="456" y="14" rx="2" ry="2" width="10" height="10" stroke="#124326" stroke-width="1" fill="#17472D"></rect>
	<rect x="456" y="27" rx="2" ry="2" width="10" height="10" stroke="#124326" stroke-width="1" fill="#17472D"></rect>
	<rect x="456" y="40" rx="2" ry="2" width="10" height="10" stroke="#1C622E" stroke-width="1" fill="#1F6435"></rect>
	<rect x="456" y="53" rx="2" ry="2" width="10" height="10" stroke="#247B37" stroke-width="1" fill="#267D3E"></rect>
	<rect x="456" y="66" rx="2" ry="2" width="10" height="10" stroke="#1C622E" stroke-width="1" fill="#1F6435"></rect>
	<rect x="456" y="79" rx="2" ry="2" width="10" height="10" stroke="#1C622E" stroke-width="1" fill="#1F6435"></rect>
	<rect x="469" y="1" rx="2" ry="2" width="10" height="10" stroke="#247B37" stroke-width="1" fill="#267D3E"></rect>
	<rect x="469" y="14" rx="2" ry="2" width="10" height="10" stroke="#1C622E" stroke-width="1" fill="#1F6435"></rect>
	<rect x="469" y="27" rx="2" ry="2" width="10" height="10" stroke="#124326" stroke-width="1" fill="#17472D"></rect>
	<rect x="469" y="40" rx="2" ry="2" width="10" height="10" stroke="#247B37" stroke-width="1" fill="#267D3E"></rect>
	<rect x="469" y="53" rx="2" ry="2" width="10" height="10" stroke="#1C622E" stroke-width="1" fill="#1F6435"></rect>
	<rect x="469" y="66" rx="2" ry="2" width="10" height="10" stroke="#124326" stroke-width="1" fill="#17472D"></rect>
	<rect x="469" y="79" rx="2" ry="2" width="10" height="10" stroke="#1C622E" stroke-width="1" fill="#1F6435"></rect>
	<rect x="482" y="1" rx="2" ry="2" width="10" height="10" stroke="#247B37" stroke-width="1" fill="#267D3E"></rect>
	<rect x="482" y="14" rx="2" ry="2" width="10" height="10" stroke="#124326" stroke-width="1" fill="#17472D"></rect>
	<rect x="482" y="27" rx="2" ry="2" width="10" height="10" stroke="#1C622E" stroke-width="1" fill="#1F6435"></rect>
	<rect x="482" y="40" rx="2" ry="2" width="10" height="10" stroke="#124326" stroke-width="1" fill="#17472D"></rect>
	<rect x="482" y="53" rx="2" ry="2" width="10" height="10" stroke="#247B37" stroke-width="1" fill="#267D3E"></rect>
	<rect x="482" y="66" rx="2" ry="2" width="10" height="10" stroke="#124326" stroke-width="1" fill="#17472D"></rect>
	<rect x="482" y="79" rx="2" ry="2" width="10" height="10" stroke="#124326" stroke-width="1" fill="#17472D"></rect>
	<rect x="495" y="1" rx="2" ry="2" width="10" height="10" stroke="#124326" stroke-width="1" fill="#17472D"></rect>
	<rect x="495" y="14" rx="2" ry="2" width="10" height="10" stroke="#1C622E" stroke-width="1" fill="#1F6435"></rect>
	<rect x="495" y="27" rx="2" ry="2" width="10" height="10" stroke="#247B37" stroke-width="1" fill="#267D3E"></rect>
	<rect x="495" y="40" rx="2" ry="2" width="10" height="10" stroke="#124326" stroke-width="1" fill="#17472D"></rect>
	<rect x="495" y="53" rx="2" ry="2" width="10" height="10" stroke="#124326" stroke-width="1" fill="#17472D"></rect>
	<rect x="495" y="66" rx="2" ry="2" width="10" height="10" stroke="#1C622E" stroke-width="1" fill="#1F6435"></rect>
	<rect x="495" y="79" rx="2" ry="2" width="10" height="10" stroke="#1C622E" stroke-width="1" fill="#1F6435"></rect>
	<rect x="508" y="1" rx="2" ry="2" width="10" height="10" stroke="#1C622E" stroke-width="1" fill="#1F6435"></rect>
	<rect x="508" y="14" rx="2" ry="2" width="10" height="10" stroke="#124326" stroke-width="1" fill="#17472D"></rect>
	<rect x="508" y="27" rx="2" ry="2" width="10" height="10" stroke="#1C622E" stroke-width="1" fill="#1F6435"></rect>
	<rect x="508" y="40" rx="2" ry="2" width="10" height="10" stroke="#12171D" stroke-width="1" fill="#12171D"></rect>
	<rect x="508" y="53" rx="2" ry="2" width="10" height="10" stroke="#124326" stroke-width="1" fill="#17472D"></rect>
	<rect x="508" y="66" rx="2" ry="2" width="10" height="10" stroke="#1C622E" stroke-width="1" fill="#1F6435"></rect>
	<rect x="508" y="79" rx="2" ry="2" width="10" height="10" stroke="#1C622E" stroke-width="1" fill="#1F6435"></rect>
	<rect x="521" y="1" rx="2" ry="2" width="10" height="10" stroke="#124326" stroke-width="1" fill="#17472D"></rect>
	<rect x="521" y="14" rx="2" ry="2" width="10" height="10" stroke="#1C622E" stroke-width="1" fill="#1F6435"></rect>
	<rect x="521" y="27" rx="2" ry="2" width="10" height="10" stroke="#247B37" stroke-width="1" fill="#267D3E"></rect>
	<rect x="521" y="40" rx="2" ry="2" width="10" height="10" stroke="#124326" stroke-width="1" fill="#17472D"></rect>
	<rect x="521" y="53" rx="2" ry="2" width="10" height="10" stroke="#124326" stroke-width="1" fill="#17472D"></rect>
	<rect x="521" y="66" rx="2" ry="2" width="10" height="10" stroke="#124326" stroke-width="1" fill="#17472D"></rect>
	<rect x="521" y="79" rx="2" ry="2" width="10" height="10" stroke="#124326" stroke-width="1" fill="#17472D"></rect>
	<rect x="534" y="1" rx="2" ry="2" width="10" height="10" stroke="#124326" stroke-width="1" fill="#17472D"></rect>
	<rect x="534" y="14" rx="2" ry="2" width="10" height="10" stroke="#124326" stroke-width="1" fill="#17472D"></rect>
	<rect x="534" y="27" rx="2" ry="2" width="10" height="10" stroke="#124326" stroke-width="1" fill="#17472D"></rect>
	<rect x="534" y="40" rx="2" ry="2" width="10" height="10" stroke="#124326" stroke-width="1" fill="#17472D"></rect>
	<rect x="534" y="53" rx="2" ry="2" width="10" height="10" stroke="#247B37" stroke-width="1" fill="#267D3E"></rect>
	<rect x="534" y="66" rx="2" ry="2" width="10" height="10" stroke="#1C622E" stroke-width="1" fill="#1F6435"></rect>
	<rect x="534" y="79" rx="2" ry="2" width="10" height="10" stroke="#247B37" stroke-width="1" fill="#267D3E"></rect>
	<rect x="547" y="1" rx="2" ry="2" width="10" height="10" stroke="#124326" stroke-width="1" fill="#17472D"></rect>
	<rect x="547" y="14" rx="2" ry="2" width="10" height="10" stroke="#124326" stroke-width="1" fill="#17472D"></rect>
	<rect x="547" y="27" rx="2" ry="2" width="10" height="10" stroke="#247B37" stroke-width="1" fill="#267D3E"></rect>
	<rect x="547" y="40" rx="2" ry="2" width="10" height="10" stroke="#1C622E" stroke-width="1" fill="#1F6435"></rect>
	<rect x="547" y="53" rx="2" ry="2" width="10" height="10" stroke="#1C622E" stroke-width="1" fill="#1F6435"></rect>
	<rect x="547" y="66" rx="2" ry="2" width="10" height="10" stroke="#247B37" stroke-width="1" fill="#267D3E"></rect>
	<rect x="547" y="79" rx="2" ry="2" width="10" height="10" stroke="#1C622E" stroke-width="1" fill="#1F6435"></rect>
	<rect x="560" y="1" rx="2" ry="2" width="10" height="10" stroke="#247B37" stroke-width="1" fill="#267D3E"></rect>
	<rect x="560" y="14" rx="2" ry="2" width="10" height="10" stroke="#247B37" stroke-width="1" fill="#267D3E"></rect>
	<rect x="560" y="27" rx="2" ry="2" width="10" height="10" stroke="#1C622E" stroke-width="1" fill="#1F6435"></rect>
	<rect x="560" y="40" rx="2" ry="2" width="10" height="10" stroke="#124326" stroke-width="1" fill="#17472D"></rect>
	<rect x="560" y="53" rx="2" ry="2" width="10" height="10" stroke="#247B37" stroke-width="1" fill="#267D3E"></rect>
	<rect x="560" y="66" rx="2" ry="2" width="10" height="10" stroke="#124326" stroke-width="1" fill="#17472D"></rect>
	<rect x="560" y="79" rx="2" ry="2" width="10" height="10" stroke="#1C622E" stroke-width="1" fill="#1F6435"></rect>
	<rect x="573" y="1" rx="2" ry="2" width="10" height="10" stroke="#124326" stroke-width="1" fill="#17472D"></rect>
	<rect x="573" y="14" rx="2" ry="2" width="10" height="10" stroke="#124326" stroke-width="1" fill="#17472D"></rect>
	<rect x="573" y="27" rx="2" ry="2" width="10" height="10" stroke="#124326" stroke-width="1" fill="#17472D"></rect>
	<rect x="573" y="40" rx="2" ry="2" width="10" height="10" stroke="#124326" stroke-width="1" fill="#17472D"></rect>
	<rect x="573" y="53" rx="2" ry="2" width="10" height="10" stroke="#1C622E" stroke-width="1" fill="#1F6435"></rect>
	<rect x="573" y="66" rx="2" ry="2" width="10" height="10" stroke="#1C622E" stroke-width="1" fill="#1F6435"></rect>
	<rect x="573" y="79" rx="2" ry="2" width="10" height="10" stroke="#124326" stroke-width="1" fill="#17472D"></rect>
	<rect x="586" y="1" rx="2" ry="2" width="10" height="10" stroke="#124326" stroke-width="1" fill="#17472D"></rect>
	<rect x="586" y="14" rx="2" ry="2" width="10" height="10" stroke="#124326" stroke-width="1" fill="#17472D"></rect>
	<rect x="586" y="27" rx="2" ry="2" width="10" height="10" stroke="#247B37" stroke-width="1" fill="#267D3E"></rect>
	<rect x="586" y="40" rx="2" ry="2" width="10" height="10" stroke="#247B37" stroke-width="1" fill="#267D3E"></rect>
	<rect x="586" y="53" rx="2" ry="2" width="10" height="10" stroke="#247B37" stroke-width="1" fill="#267D3E"></rect>
	<rect x="586" y="66" rx="2" ry="2" width="10" height="10" stroke="#124326" stroke-width="1" fill="#17472D"></rect>
	<rect x="586" y="79" rx="2" ry="2" width="10" height="10" stroke="#247B37" stroke-width="1" fill="#267D3E"></rect>
	<rect x="599" y="1" rx="2" ry="2" width="10" height="10" stroke="#247B37" stroke-width="1" fill="#267D3E"></rect>
	<rect x="599" y="14" rx="2" ry="2" width="10" height="10" stroke="#1C622E" stroke-width="1" fill="#1F6435"></rect>
	<rect x="599" y="27" rx="2" ry="2" width="10" height="10" stroke="#247B37" stroke-width="1" fill="#267D3E"></rect>
	<rect x="599" y="40" rx="2" ry="2" width="10" height="10" stroke="#124326" stroke-width="1" fill="#17472D"></rect>
	<rect x="599" y="53" rx="2" ry="2" width="10" height="10" stroke="#1C622E" stroke-width="1" fill="#1F6435"></rect>
	<rect x="599" y="66" rx="2" ry="2" width="10" height="10" stroke="#247B37" stroke-width="1" fill="#267D3E"></rect>
	<rect x="599" y="79" rx="2" ry="2" width="10" height="10" stroke="#124326" stroke-width="1" fill="#17472D"></rect>
	<rect x="612" y="1" rx="2" ry="2" width="10" height="10" stroke="#124326" stroke-width="1" fill="#17472D"></rect>
	<rect x="612" y="14" rx="2" ry="2" width="10" height="10" stroke="#247B37" stroke-width="1" fill="#267D3E"></rect>
	<rect x="612" y="27" rx="2" ry="2" width="10" height="10" stroke="#124326" stroke-width="1" fill="#17472D"></rect>
	<rect x="612" y="40" rx="2" ry="2" width="10" height="10" stroke="#124326" stroke-width="1" fill="#17472D"></rect>
	<rect x="612" y="53" rx="2" ry="2" width="10" height="10" stroke="#12171D" stroke-width="1" fill="#12171D"></rect>
	<rect x="612" y="66" rx="2" ry="2" width="10" height="10" stroke="#247B37" stroke-width="1" fill="#267D3E"></rect>
	<rect x="612" y="79" rx="2" ry="2" width="10" height="10" stroke="#124326" stroke-width="1" fill="#17472D"></rect>
	<rect x="625" y="1" rx="2" ry="2" width="10" height="10" stroke="#1C622E" stroke-width="1" fill="#1F6435"></rect>
	<rect x="625" y="14" rx="2" ry="2" width="10" height="10" stroke="#12171D" stroke-width="1" fill="#12171D"></rect>
	<rect x="625" y="27" rx="2" ry="2" width="10" height="10" stroke="#1C622E" stroke-width="1" fill="#1F6435"></rect>
	<rect x="625" y="40" rx="2" ry="2" width="10" height="10" stroke="#1C622E" stroke-width="1" fill="#1F6435"></rect>
	<rect x="625" y="53" rx="2" ry="2" width="10" height="10" stroke="#1C622E" stroke-width="1" fill="#1F6435"></rect>
	<rect x="625" y="66" rx="2" ry="2" width="10" height="10" stroke="#124326" stroke-width="1" fill="#17472D"></rect>
	<rect x="625" y="79" rx="2" ry="2" width="10" height="10" stroke="#1C622E" stroke-width="1" fill="#1F6435"></rect>
	<rect x="638" y="1" rx="2" ry="2" width="10" height="10" stroke="#124326" stroke-width="1" fill="#17472D"></rect>
	<rect x="638" y="14" rx="2" ry="2" width="10" height="10" stroke="#124326" stroke-width="1" fill="#17472D"></rect>
	<rect x="638" y="27" rx="2" ry="2" width="10" height="10" stroke="#1C622E" stroke-width="1" fill="#1F6435"></rect>
	<rect x="638" y="40" rx="2" ry="2" width="10" height="10" stroke="#124326" stroke-width="1" fill="#17472D"></rect>
	<rect x="638" y="53" rx="2" ry="2" width="10" height="10" stroke="#124326" stroke-width="1" fill="#17472D"></rect>
	<rect x="638" y="66" rx="2" ry="2" width="10" height="10" stroke="#1C622E" stroke-width="1" fill="#1F6435"></rect>
	<rect x="638" y="79" rx="2" ry="2" width="10" height="10" stroke="#124326" stroke-width="1" fill="#17472D"></rect>
	<rect x="651" y="1" rx="2" ry="2" width="10" height="10" stroke="#124326" stroke-width="1" fill="#17472D"></rect>
	<rect x="651" y="14" rx="2" ry="2" width="10" height="10" stroke="#1C622E" stroke-width="1" fill="#1F6435"></rect>
	<rect x="651" y="27" rx="2" ry="2" width="10" height="10" stroke="#247B37" stroke-width="1" fill="#267D3E"></rect>
	<rect x="651" y="40" rx="2" ry="2" width="10" height="10" stroke="#1C622E" stroke-width="1" fill="#1F6435"></rect>
	<rect x="651" y="53" rx="2" ry="2" width="10" height="10" stroke="#124326" stroke-width="1" fill="#17472D"></rect>
	<rect x="651" y="66" rx="2" ry="2" width="10" height="10" stroke="#124326" stroke-width="1" fill="#17472D"></rect>
	<rect x="651" y="79" rx="2" ry="2" width="10" height="10" stroke="#247B37" stroke-width="1" fill="#267D3E"></rect>
	<rect x="664" y="1" rx="2" ry="2" width="10" height="10" stroke="#124326" stroke-width="1" fill="#17472D"></rect>
	<rect x="664" y="14" rx="2" ry="2" width="10" height="10" stroke="#247B37" stroke-width="1" fill="#267D3E"></rect>
	<rect x="664" y="27" rx="2" ry="2" width="10" height="10" stroke="#124326" stroke-width="1" fill="#17472D"></rect>
	<rect x="664" y="40" rx="2" ry="2" width="10" height="10" stroke="#124326" stroke-width="1" fill="#17472D"></rect>
	<rect x="664" y="53" rx="2" ry="2" width="10" height="10" stroke="#124326" stroke-width="1" fill="#17472D"></rect>
	<rect x="664" y="66" rx="2" ry="2" width="10" height="10" stroke="#247B37" stroke-width="1" fill="#267D3E"></rect>
	<rect x="664" y="79" rx="2" ry="2" width="10" height="10" stroke="#124326" stroke-width="1" fill="#17472D"></rect>
	<rect x="677" y="1" rx="2" ry="2" width="10" height="10" stroke="#1C622E" stroke-width="1" fill="#1F6435"></rect>
	<rect x="677" y="14" rx="2" ry="2" width="10" height="10" stroke="#12171D" stroke-width="1" fill="#12171D"></rect>
	<rect x="677" y="27" rx="2" ry="2" width="10" height="10" stroke="#124326" stroke-width="1" fill="#17472D"></rect>
	<rect x="677" y="40" rx="2" ry="2" width="10" height="10" stroke="#247B37" stroke-width="1" fill="#267D3E"></rect>
	<rect x="677" y="53" rx="2" ry="2" width="10" height="10" stroke="#1C622E" stroke-width="1" fill="#1F6435"></rect>
	<rect x="677" y="66" rx="2" ry="2" width="10" height="10" stroke="#124326" stroke-width="1" fill="#17472D"></rect>
	<rect x="677" y="79" rx="2" ry="2" width="10" height="10" stroke="#247B37" stroke-width="1" fill="#267D3E"></rect>

</svg>
